<svg width="64" height="64" viewBox="0 0 64 64" fill="none" xmlns="http://www.w3.org/2000/svg">
  <defs>
    <linearGradient id="tgGradient" x1="8" y1="6" x2="52" y2="58" gradientUnits="userSpaceOnUse">
      <stop stop-color="#2AABEE"/>
      <stop offset="1" stop-color="#229ED9"/>
    </linearGradient>
    <linearGradient id="tgShadow" x1="20" y1="24" x2="46" y2="54" gradientUnits="userSpaceOnUse">
      <stop stop-color="#0A2F4F" stop-opacity="0.45"/>
      <stop offset="1" stop-color="#0A2F4F" stop-opacity="0"/>
    </linearGradient>
  </defs>
  <rect x="2.5" y="2.5" width="59" height="59" rx="16" fill="url(#tgGradient)"/>
  <rect x="2.5" y="2.5" width="59" height="59" rx="16" stroke="#5CC8F8" stroke-width="1.5" opacity="0.7"/>
  <path d="M18.2 31.9C28.8 27.3 35.9 24.4 39.5 23.1C49.6 19.6 51.7 18.9 53.1 18.9C53.4 18.9 54.1 19 54.5 19.4C54.8 19.7 54.9 20.2 54.9 20.6C54.8 21.1 54.5 22.1 54.4 22.7C52.3 31.9 44.7 51.5 41.3 59.7C41.2 60.2 40.9 60.7 40.5 61C40.1 61.3 39.6 61.4 39.1 61.2C38.5 61 37.8 60.6 36.9 60C35 58.8 31.7 56.6 29.9 55.4C29.1 54.8 27.7 53.7 27.9 52.4C28.1 51.1 30.4 48.9 31.6 47.7C32 47.2 32.7 46.1 31.5 45.3C29.6 44 26.6 42.1 24.3 40.6C21.8 39 19.8 38.1 22 36C27.2 31.3 32 26.9 36.1 23C36.9 22.2 36 21.9 35 22.4C28.5 25.4 20.2 29.2 18.2 29.9C16.3 30.7 15.2 30.9 14.3 30.8C12.9 30.6 10.3 29.9 12.3 29C16.3 27.4 19 26.3 20.2 25.8L50.5 13.1C51.9 12.5 53.9 11.8 55.1 12C56.2 12.2 57.3 13 57.7 14.1C58 15 57.9 16.2 57.6 17.1C54.1 30 46.9 47 41.8 57.7C39.8 61.9 36.5 62.6 32.8 59.8C30.4 58 23.5 53.1 21.7 51.8C19.3 50 20.4 48.4 23.3 46.8C24.6 46 29.1 43.6 29.3 43.4C29.5 43.3 29.5 43 29.3 42.9C29.2 42.8 28.9 42.7 28.6 42.9C25.9 44.3 21.1 46.8 19.4 47.5C17.1 48.4 15.3 48.8 13.4 48.3C11.3 47.8 9 45.7 10.5 42.2C11.4 40.1 13.6 37.4 18.2 31.9Z" fill="white" fill-opacity="0.95"/>
  <rect x="2.5" y="2.5" width="59" height="59" rx="16" fill="url(#tgShadow)"/>
</svg>
