<svg width="64" height="64" viewBox="0 0 64 64" fill="none" xmlns="http://www.w3.org/2000/svg">
  <defs>
    <linearGradient id="waGradient" x1="8" y1="6" x2="52" y2="58" gradientUnits="userSpaceOnUse">
      <stop stop-color="#25D366"/>
      <stop offset="1" stop-color="#128C7E"/>
    </linearGradient>
    <linearGradient id="waShadow" x1="18" y1="22" x2="48" y2="52" gradientUnits="userSpaceOnUse">
      <stop stop-color="#0B3B29" stop-opacity="0.45"/>
      <stop offset="1" stop-color="#0B3B29" stop-opacity="0"/>
    </linearGradient>
  </defs>
  <rect x="2.5" y="2.5" width="59" height="59" rx="16" fill="url(#waGradient)"/>
  <rect x="2.5" y="2.5" width="59" height="59" rx="16" stroke="#6CF8B4" stroke-width="1.5" opacity="0.7"/>
  <path d="M12.4 49.6L15.9 40.1C13.9 36.8 13 33.1 13 29.5C13 19.5 21.2 11.3 31.1 11.3C36 11.3 40.7 13.2 44.1 16.6C47.6 20 49.6 24.7 49.6 29.5C49.6 39.5 41.4 47.7 31.4 47.7H31.3C28.3 47.7 25.5 47 22.9 45.6L12.4 49.6Z" fill="white" fill-opacity="0.92" stroke="#0F5F3E" stroke-width="1.4"/>
  <path d="M24 21.6C23.5 20.5 23 20.5 22.4 20.5C22 20.5 21.3 20.5 20.6 20.5C19.8 20.5 18.8 20.8 18.1 21.6C17.4 22.5 15.9 24 15.9 27.1C15.9 30.2 18.2 33.1 18.5 33.5C18.9 34.1 23.1 40.8 30.1 43.6C33.5 45 35.9 45.7 37.6 46.2C39.6 46.8 41.3 46.7 42.6 46.6C44 46.5 46.7 45.1 47.3 43.4C47.9 41.7 47.9 40.1 47.7 39.8C47.5 39.5 47.1 39.4 46.4 39.1C45.7 38.8 42.7 37.3 42 37.1C41.3 36.8 40.8 36.7 40.3 37.5C39.9 38.4 38.9 39.5 38.5 39.9C38.2 40.2 37.9 40.3 37.2 40C36.5 39.7 34.3 39.1 31.9 37.1C29.8 35.3 28.4 32.8 28.1 32.1C27.7 31.4 28.1 31 28.4 30.7C28.6 30.4 28.9 29.9 29.1 29.6C29.3 29.2 29.2 28.8 29 28.5C28.8 28.2 27.1 24 26.3 22.1C25.6 20.4 24.9 20.7 24.4 20.7C24.2 20.7 24 20.8 24 21.6Z" fill="#0F5F3E"/>
  <rect x="2.5" y="2.5" width="59" height="59" rx="16" fill="url(#waShadow)"/>
</svg>
